PathFileType	4	(X/Y/Z)	C:/Users/beibeiliu/ov580/test_trc/User3\sequence.8_training_dense_left.trc
DataRate	CameraRate	NumFrames	NumMarkers	Units	OrigDataRate	OrigDataStartFrame	OrigNumFrames
120	120	15	19	mm	120	59	235
Frame#	Time	ThumbCMC			ThumbMCP			ThumbIP			ThumbTip			IndexMCP			IndexPIP			IndexTip			MiddleMCP			MiddlePIP			MiddleTip			RingMCP			RingPIP			RingTip			PinkyMCP			PinkyPIP			PinkyTip			BackHand1			BackHand2			BackHand3	
		X0	Y0	Z0	X1	Y1	Z1	X2	Y2	Z2	X3	Y3	Z3	X4	Y4	Z4	X5	Y5	Z5	X6	Y6	Z6	X7	Y7	Z7	X8	Y8	Z8	X9	Y9	Z9	X10	Y10	Z10	X11	Y11	Z11	X12	Y12	Z12	X13	Y13	Z13	X14	Y14	Z14	X15	Y15	Z15	X16	Y16	Z16	X17	Y17	Z17	X18	Y18	Z18	
58	0.483333	-153.578	-8.13739	33.3345	-133.897	-14.3645	7.61129	-122.566	-20.1409	-19.104	-127.829	-30.0909	-45.0788	-143.468	22.3569	-36.701	-127.39	28.3397	-56.9603	-109.365	32.9614	-80.2761	-159.721	1.66869	-55.5888	-140.557	-26.7483	-63.2985	-150.114	-38.9764	-27.353	-173.263	-20.2822	-51.1978	-159.864	-48.7569	-43.8105	-164.932	-44.1867	-14.0539	-189.193	-35.4287	-46.0762	-172.345	-54.0055	-33.9721	-180.064	-44.2922	-3.40915	-201.689	3.82526	-10.9565	-216.706	-2.28073	20.0113	-183.227	13.7684	15.4506	
59	0.491667	-153.069	-9.57724	35.25	-132.637	-15.0099	8.85435	-121.779	-20.1622	-18.5815	-128.788	-29.5849	-43.2548	-137.009	24.2511	-36.7785	-117.817	29.1316	-55.5261	-106.872	29.0827	-74.3171	-156.041	2.27197	-57.3835	-137.431	-22.0223	-64.9038	-149.718	-39.4545	-31.1676	-169.464	-20.9547	-52.6956	-156.14	-47.0356	-42.8692	-166.714	-41.1272	-10.8901	-188.632	-32.7269	-44.7093	-171.821	-54.5555	-31.4094	-178.64	-44.8292	-7.58892	-206.411	1.81691	-8.44298	-217.646	-1.71094	18.5715	-179.23	14.8976	18.2626	
60	0.5	-153.267	-8.99549	36.0706	-132.811	-14.2022	10.8204	-119.469	-19.4306	-21.0486	-126.906	-27.8172	-41.4167	-138.696	20.3871	-32.9202	-118.871	24.3804	-54.3487	-99.2624	20.4293	-77.3634	-150.823	4.99075	-53.4954	-136.135	-20.5237	-64.3758	-145	-38.7658	-26.0903	-168.252	-19.1129	-52.0914	-157.527	-47.4503	-45.0862	-162.976	-43.0157	-14.1821	-184.846	-31.1118	-45.4766	-171.908	-54.1914	-35.8334	-178.345	-48.2047	-6.73808	-200.498	4.21325	-11.2165	-215.078	-1.35831	20.5911	-182.424	11.456	16.5186	
61	0.508333	-152.138	-8.92317	35.2665	-129.837	-14.8966	11.7475	-117.719	-20.7004	-16.4136	-122.413	-29.2525	-43.3905	-137.32	17.2856	-35.2413	-114.749	17.0691	-56.4509	-93.25	8.53986	-72.3755	-149.343	2.95305	-54.8244	-135.406	-24.7228	-62.3566	-145.342	-39.1623	-27.1173	-170.009	-20.2134	-51.9596	-155.085	-46.8681	-46.0222	-166.318	-42.9918	-13.7527	-185.24	-34.0915	-48.6579	-170.141	-54.3469	-35.7053	-176.727	-45.2149	-8.91525	-200.536	3.11507	-12.5376	-213.327	-1.10375	16.6094	-178.561	15.1735	20.3457	
62	0.516667	-153.219	-10.3243	36.5208	-130.376	-14.6446	9.57255	-120.106	-20.7149	-14.3275	-124.606	-28.3353	-42.4501	-132.305	14.7028	-36.9374	-112.29	11.0218	-54.5568	-93.8452	-5.12849	-73.7034	-150.07	3.11482	-52.8515	-132.281	-24.874	-61.3054	-146.607	-41.4792	-29.8956	-167.717	-20.3953	-52.9325	-153.673	-45.9869	-48.3349	-164.76	-42.7241	-14.1226	-185.147	-32.0564	-47.3328	-171.154	-54.7925	-36.9303	-178.629	-47.0252	-6.7037	-200.58	5.25716	-6.57761	-211.477	-0.0411019	18.9751	-178.556	13.1131	18.905	
63	0.525	-154.495	-11.2016	34.9822	-131.241	-15.0867	11.348	-121.037	-19.9561	-15.773	-125.849	-28.5546	-41.6764	-132.881	13.0023	-35.9404	-111.107	7.10261	-56.9086	-93.0468	-8.39205	-72.4121	-150.816	1.82931	-54.8993	-133.757	-22.8199	-63.5865	-143.817	-40.6743	-28.4671	-169.137	-17.8795	-50.654	-154.621	-46.4258	-47.6673	-165.206	-45.2149	-16.4824	-185.655	-29.3593	-45.6433	-172.679	-55.3707	-38.4144	-175.617	-46.0441	-8.0588	-198.898	4.56984	-7.22112	-217.643	-0.663043	18.5156	-177.765	14.599	17.4987	
64	0.533333	-156.667	-10.3343	32.477	-131.484	-16.386	13.225	-118.754	-19.4833	-20.2857	-126.46	-29.1221	-41.032	-134.14	14.3471	-38.8059	-112.523	9.80154	-59.155	-95.6528	-1.5466	-72.0163	-150.126	3.1706	-53.8276	-135.673	-26.4604	-62.8354	-147.388	-42.1007	-28.7143	-170.068	-20.2231	-54.0639	-157.065	-47.3978	-48.8605	-164.168	-43.8826	-15.33	-184.436	-30.6985	-45.6799	-171.69	-55.0198	-37.5131	-180.056	-50.4831	-8.2307	-201.469	4.18404	-8.7123	-215.053	-1.45668	18.3973	-178.04	11.9873	18.0682	
65	0.541667	-155.374	-10.4993	32.5326	-131.353	-14.3417	7.37123	-120.76	-21.6006	-15.8677	-125.361	-28.8651	-42.239	-138.039	16.8829	-34.3498	-117.911	15.1268	-59.9126	-99.3046	7.21854	-79.649	-150.896	2.42007	-54.3341	-139.19	-27.2958	-63.9954	-149.37	-43.6385	-32.6959	-166.774	-19.7199	-51.6249	-157.514	-48.0185	-45.353	-167.335	-44.3084	-14.4964	-183.668	-32.8256	-46.8742	-175.168	-56.1586	-36.5089	-175.756	-46.6614	-6.99793	-202.119	3.36087	-6.71969	-216.939	0.647649	15.5331	-181.589	12.9086	17.6837	
66	0.55	-153.128	-9.58513	32.7058	-129.286	-14.0162	10.4148	-119.927	-19.7813	-19.3379	-124.197	-28.8792	-45.0703	-140.019	19.7182	-33.4869	-122.081	23.1204	-57.8608	-104.59	19.6805	-79.6193	-154.258	1.92822	-56.2677	-136.624	-22.8584	-65.24	-150.299	-41.1654	-29.1007	-169.595	-20.6592	-51.8723	-161.165	-49.3643	-46.2172	-165.985	-45.2377	-14.5827	-189.359	-31.0654	-45.7282	-173.765	-53.1415	-36.2559	-181.688	-48.3418	-6.9324	-202.477	5.54494	-6.04453	-215.591	-0.852523	17.1429	-180.97	14.2686	18.8808	
67	0.558333	-151.891	-7.31906	32.3887	-130.094	-13.4279	9.50162	-118.152	-17.8795	-21.203	-130.071	-27.5169	-45.5959	-144.625	21.4037	-36.2581	-127.177	27.6474	-57.5384	-111.586	29.796	-79.3115	-157.543	2.51015	-55.1422	-141.284	-24.3372	-65.1485	-151.438	-40.4475	-32.2357	-171.711	-19.1874	-51.618	-160.943	-47.6855	-43.3606	-167.125	-41.1961	-12.9787	-187.476	-33.7847	-46.9055	-174.929	-54.0781	-32.9524	-181.02	-42.0504	-5.18365	-204.342	6.64913	-6.88153	-213.83	-0.250667	17.8931	-180.527	14.2931	18.1547	
68	0.566667	-151.827	-7.83728	32.8969	-128.775	-12.953	8.57037	-121.689	-17.3394	-18.9555	-128.123	-27.2114	-46.2274	-143.98	25.0714	-37.944	-129.506	33.1567	-62.2225	-119.81	34.8488	-82.7179	-159.005	5.2205	-56.4437	-144.34	-20.7254	-67.5618	-149.456	-37.8306	-32.4731	-172.494	-15.4462	-50.7232	-161.641	-45.0512	-46.245	-170.102	-43.1374	-15.0252	-191.17	-31.9608	-47.5722	-174.081	-51.4869	-34.8911	-177.846	-42.2282	-7.28189	-202.433	7.48345	-9.19716	-217.372	1.4403	18.5339	-181.086	13.6985	16.5617	
69	0.575	-155.312	-8.55757	31.4499	-131.164	-11.7778	4.99526	-120.926	-16.3588	-22.9141	-128.372	-26.8225	-46.9252	-143.42	28.459	-36.7958	-132.705	35.8218	-62.4204	-123.593	39.7756	-83.5166	-159.226	5.6356	-59.3057	-145.897	-19.2702	-69.0972	-152.345	-35.9638	-31.592	-175.943	-16.6311	-52.9155	-164.784	-43.8974	-49.9268	-167.811	-40.7949	-15.9948	-191.12	-29.908	-49.1052	-174.507	-49.4699	-37.2919	-179.692	-45.3398	-8.99749	-206.417	8.15836	-6.23181	-218.562	-0.191328	22.1651	-181.551	14.4102	17.7619	
70	0.583333	-152.665	-7.05719	31.5652	-134.853	-11.9009	5.66562	-122.594	-16.8234	-23.9839	-131.878	-25.5582	-48.6925	-147.013	30.3187	-36.85	-136.507	38.7124	-56.2595	-128.713	44.2437	-85.7307	-159.475	9.02342	-55.5249	-147.02	-16.83	-69.3915	-149.216	-33.9768	-33.6413	-178.024	-14.5645	-53.3047	-162.654	-42.9425	-46.5536	-170.467	-37.158	-13.5122	-192.082	-29.8751	-49.8422	-179.429	-51.22	-39.5265	-179.745	-40.6498	-8.26304	-207.284	7.96657	-8.74423	-214.158	1.0034	23.0741	-182.134	14.7193	18.6964	
71	0.591667	-153.283	-5.66513	28.1011	-132.377	-13.037	7.32174	-126.6	-17.442	-24.0235	-132.71	-27.5711	-49.5328	-153.881	28.0156	-39.7571	-141.281	38.6511	-62.0027	-133.173	45.4459	-86.2696	-163.778	10.1793	-56.1044	-146.294	-15.1337	-68.9434	-152.792	-34.4451	-32.1558	-176.141	-15.0334	-53.9335	-165.595	-40.607	-51.7571	-171.699	-37.6563	-14.3606	-196.693	-27.128	-46.5028	-178.345	-48.9614	-38.8189	-180.163	-41.6418	-7.41231	-207.503	7.37048	-9.19174	-217.381	0.929647	21.39	-180.6	16.5728	18.1713	
72	0.6	-153.791	-7.25383	31.9062	-133.695	-12.7487	5.26045	-123.856	-17.4076	-25.3536	-136.489	-26.5106	-48.9388	-155.126	28.9032	-40.1773	-146.008	38.0828	-61.9099	-135.871	45.3523	-83.3319	-166.508	8.22229	-59.7347	-151.998	-19.0446	-69.6326	-155.842	-35.5945	-36.2037	-180.126	-14.7799	-54.6518	-165.863	-41.8811	-50.2683	-169.838	-37.4862	-15.6134	-195.186	-24.865	-46.1871	-180.598	-49.2129	-40.9646	-183.921	-45.4792	-8.55248	-211.31	7.32823	-6.52695	-218.14	1.01172	25.1534	-184.712	14.8975	18.8544	
